<svg width="32" height="32" viewBox="0 0 32 32" fill="none" xmlns="http://www.w3.org/2000/svg">
<circle cx="16" cy="16" r="16" fill="white"/>
<path fill-rule="evenodd" clip-rule="evenodd" d="M28.5092 12.8723C28.808 12.6135 29 12.2525 29 11.7636C29 10.5072 27.9885 9.71078 26.8955 9.71078C25.8024 9.71078 24.9163 10.7293 24.9163 11.9856C24.9163 12.3567 24.9713 12.6347 25.0769 12.8423C24.8464 13.1644 24.7075 13.5668 24.7075 14.0324C24.7075 15.2888 25.9748 15.701 27.0679 15.701C28.1609 15.701 28.6763 15.2929 28.8329 14.0324C28.8329 13.5812 28.7132 13.1892 28.5092 12.8723Z" fill="#C2C2FF" fill-opacity="0.2"/>
<path fill-rule="evenodd" clip-rule="evenodd" d="M3.49091 12.8721C3.19214 12.6134 3.0003 12.2524 3.0003 11.7636C3.0003 10.5072 4.01174 9.71078 5.10479 9.71078C6.19784 9.71078 7.08394 10.7293 7.08394 11.9856C7.08394 12.3568 7.02895 12.6349 6.92327 12.8425C7.15365 13.1646 7.29248 13.5669 7.29248 14.0324C7.29248 15.2888 6.02517 15.701 4.93211 15.701C3.83906 15.701 3.32372 15.2929 3.16706 14.0324C3.16706 13.5811 3.2868 13.1891 3.49091 12.8721Z" fill="#C2C2FF" fill-opacity="0.2"/>
<path fill-rule="evenodd" clip-rule="evenodd" d="M20.195 4.96123C19.9504 4.65496 19.9004 4.18825 20.0985 3.81582C20.3382 3.36526 20.8502 3.22333 21.2422 3.49882C21.5647 3.72541 21.6975 3.97104 21.6545 4.58065L21.5177 6.24462L19.3603 6.15145L20.195 4.96123Z" fill="#AFD9FF"/>
<path fill-rule="evenodd" clip-rule="evenodd" d="M10.4692 5.336C10.1636 5.19449 9.948 4.85054 9.948 4.4487C9.948 3.92058 10.3205 3.49246 10.7799 3.49246C11.1143 3.49246 11.4025 3.71912 11.5347 4.04605L12.1967 5.49156L10.3138 6.70563L10.4692 5.336Z" fill="#9EE0FF"/>
<path fill-rule="evenodd" clip-rule="evenodd" d="M4.31491 20.5739C4.58823 19.4662 6.03316 18.6254 6.51834 18.3996C6.92227 18.2117 7.92177 17.9721 7.44631 19.3357C6.89334 20.9215 5.63859 21.6406 5.0244 21.8531C4.98069 22.0424 4.88392 22.2138 4.73793 22.3346C4.38948 22.623 3.89257 22.5146 3.62805 22.0924C3.37126 21.6052 3.55743 20.8921 3.81481 20.679C3.96832 20.552 4.14389 20.5265 4.31491 20.5739Z" fill="url(#paint0_linear_2980_34549)"/>
<path fill-rule="evenodd" clip-rule="evenodd" d="M27.7334 12.8277C27.9521 12.6385 28.0925 12.3743 28.0925 12.0166C28.0925 11.0976 27.3527 10.515 26.5531 10.515C25.7535 10.515 25.1054 11.26 25.1054 12.179C25.1054 12.4503 25.1455 12.6536 25.2227 12.8055C25.054 13.0411 24.9524 13.3356 24.9524 13.6762C24.9524 14.5953 25.8794 14.8968 26.679 14.8968C27.4785 14.8968 27.8555 14.5983 27.9701 13.6762C27.9701 13.3462 27.8826 13.0596 27.7334 12.8277Z" fill="#C2C2FF"/>
<path fill-rule="evenodd" clip-rule="evenodd" d="M4.27845 12.741C4.05983 12.5517 3.91946 12.2876 3.91946 11.93C3.91946 11.0109 4.65932 10.4284 5.45888 10.4284C6.25844 10.4284 6.90661 11.1734 6.90661 12.0924C6.90661 12.3638 6.86641 12.5672 6.78916 12.7191C6.95773 12.9547 7.05933 13.2491 7.05933 13.5896C7.05933 14.5086 6.1323 14.8102 5.33274 14.8102C4.53318 14.8102 4.15621 14.5116 4.04161 13.5896C4.04161 13.2595 4.12918 12.9728 4.27845 12.741Z" fill="#C2C2FF"/>
<path d="M13.473 28.3664C13.4759 27.887 13.1793 26.5932 13.0307 26.0063L16.1193 26.5482L15.2214 29.4165C15.1821 29.5419 15.0743 29.6286 14.9448 29.6388C13.7902 29.7215 12.96 29.3248 12.9031 29.1899C12.807 28.9621 13.1995 28.8903 13.3593 28.7193C13.47 28.6009 13.4866 28.4527 13.473 28.3664Z" fill="url(#paint1_linear_2980_34549)"/>
<path fill-rule="evenodd" clip-rule="evenodd" d="M18.6603 24.5859C17.8923 24.7589 17.377 25.5281 17.5092 26.3042L17.5993 26.8324C17.6755 27.2795 17.9501 27.6313 18.3161 27.8161L18.1521 28.1364C18.6814 28.1958 19.8366 28.36 20.2228 28.541C20.3017 28.5597 20.4241 28.6397 20.4743 28.8218C20.4951 28.8974 20.5014 28.9923 20.5075 29.0855C20.5203 29.28 20.5327 29.4669 20.6763 29.4552C20.8064 29.4446 21.4352 28.706 21.7973 27.443C21.8369 27.3018 21.7972 27.1437 21.6964 27.0407L20.2719 25.5874C20.1004 24.8643 19.398 24.4198 18.6603 24.5859Z" fill="url(#paint2_linear_2980_34549)"/>
<path d="M26.5221 17.8397C26.5221 24.5164 21.7535 27.4402 15.865 27.4402C9.97663 27.4402 5.20312 23.1921 5.20312 16.5154C5.20312 9.83868 8.29659 4.42612 15.865 4.42612C23.6211 4.42612 26.5221 11.163 26.5221 17.8397Z" fill="url(#paint3_linear_2980_34549)"/>
<path d="M7.92565 12.8922C8.021 11.7232 8.54699 10.7183 9.10837 10.0565C10.0889 8.90042 11.1218 8.07028 12.4831 7.67244C16.5658 6.47927 19.4617 8.26814 20.4056 9.40637C21.7649 11.1022 22.1377 12.5615 22.076 13.6658C21.9947 15.1232 20.9063 16.3068 19.681 16.6931C18.6522 17.0176 17.396 17.17 16.6214 17.211C14.4957 17.5565 11.7278 17.0671 10.6095 16.7792C8.05449 16.0388 7.75568 13.8794 7.92565 12.8922Z" fill="url(#paint4_linear_2980_34549)"/>
<ellipse cx="12.6084" cy="10.515" rx="0.281456" ry="0.361893" fill="#515151"/>
<ellipse cx="15.7602" cy="10.515" rx="0.281456" ry="0.361893" fill="#515151"/>
<path fill-rule="evenodd" clip-rule="evenodd" d="M20.6438 14.463C21.6107 14.1624 22.9814 15.1534 23.3995 15.5153C23.7476 15.8166 24.4408 16.6782 23.1789 16.9116C21.7113 17.183 20.529 16.3165 20.0545 15.8206C19.8908 15.8749 19.7133 15.8677 19.5481 15.7861C19.1536 15.5912 18.9788 15.0457 19.1575 14.5677C19.3887 14.0639 20.0165 13.8802 20.3079 14.0242C20.4817 14.1101 20.5911 14.2701 20.6438 14.463Z" fill="url(#paint5_linear_2980_34549)"/>
<path d="M21.6334 9.30472C21.9826 9.97313 21.8727 10.7862 21.3879 11.1207C20.9032 11.4552 20.2272 11.1846 19.878 10.5162C19.5289 9.84777 19.2167 8.22673 19.7014 7.8922C20.1862 7.55767 21.2843 8.63632 21.6334 9.30472Z" fill="#D9D9D9"/>
<path d="M22.1829 7.37271C22.4934 7.56355 22.6329 7.95942 22.4945 8.25692C22.3561 8.55442 21.9922 8.64089 21.6817 8.45005C21.3712 8.25921 20.8563 7.63264 20.9947 7.33514C21.1331 7.03764 21.8724 7.18187 22.1829 7.37271Z" fill="#D9D9D9"/>
<defs>
<linearGradient id="paint0_linear_2980_34549" x1="7.62007" y1="18.6256" x2="3.19346" y2="21.399" gradientUnits="userSpaceOnUse">
<stop stop-color="#B4D6FF"/>
<stop offset="1" stop-color="#90C3FF"/>
</linearGradient>
<linearGradient id="paint1_linear_2980_34549" x1="14.5998" y1="26.1517" x2="13.7129" y2="29.55" gradientUnits="userSpaceOnUse">
<stop stop-color="#A1DDFF"/>
<stop offset="1" stop-color="#B6D3FF"/>
</linearGradient>
<linearGradient id="paint2_linear_2980_34549" x1="18.403" y1="27.0034" x2="23.2225" y2="29.85" gradientUnits="userSpaceOnUse">
<stop stop-color="#9DDCFF"/>
<stop offset="1" stop-color="#B9CDFF"/>
</linearGradient>
<linearGradient id="paint3_linear_2980_34549" x1="6.52753" y1="9.78601" x2="27.0107" y2="15.6643" gradientUnits="userSpaceOnUse">
<stop stop-color="#A2DEFF"/>
<stop offset="1" stop-color="#B7D4FF"/>
</linearGradient>
<linearGradient id="paint4_linear_2980_34549" x1="14.9846" y1="7.41766" x2="14.9846" y2="17.3299" gradientUnits="userSpaceOnUse">
<stop stop-color="white"/>
<stop offset="1" stop-color="#DEFDFD"/>
</linearGradient>
<linearGradient id="paint5_linear_2980_34549" x1="23.798" y1="16.7173" x2="19.0217" y2="14.931" gradientUnits="userSpaceOnUse">
<stop stop-color="#B4D6FF"/>
<stop offset="1" stop-color="#90C3FF"/>
</linearGradient>
</defs>
</svg>
