<svg width="100%" height="100%" viewBox="0 0 390 438" fill="none" xmlns="http://www.w3.org/2000/svg">
<path d="M253.5 7.86729C285.5 -0.891314 302 0.918224 309 0.56868C323 -0.130279 356.493 9.32703 359 10.3005C373 15.737 381.667 18.8622 390 19.5391V438H0V3.30122C5.61036 4.24018 11.8628 6.71113 17.2973 10.2623C27.983 17.2445 51.4257 20.5908 56.5736 21.6992C83.7808 27.5519 86.7007 24.7774 111.634 19.539C130.124 15.6525 152 11.7921 168 10.3002C180 9.18122 183.075 9.67296 193 9.32703C207.5 8.82164 243.345 10.6467 253.5 7.86729Z" fill="url(#paint0_linear_382_2394)" fill-opacity="0.5"/>
<path d="M253.5 7.86711C285.5 -0.891503 302 0.918036 309 0.568491C323 -0.130468 356.493 9.32684 359 10.3003C373 15.7368 381.667 18.862 390 19.5389V438H0V3.30103C5.61036 4.23999 11.8628 6.71094 17.2973 10.2621C27.983 17.2443 51.4257 20.5907 56.5736 21.6991C83.7808 27.5517 86.7007 24.7772 111.634 19.5388C130.124 15.6523 152 11.7919 168 10.3C180 9.18103 183.075 9.67278 193 9.32684C207.5 8.82145 243.345 10.6466 253.5 7.86711Z" fill="url(#paint1_radial_382_2394)" fill-opacity="0.5"/>
<defs>
<linearGradient id="paint0_linear_382_2394" x1="195" y1="-34.4648" x2="195" y2="406.373" gradientUnits="userSpaceOnUse">
<stop stop-color="#C1EDFF"/>
<stop offset="1" stop-color="white" stop-opacity="0"/>
</linearGradient>
<radialGradient id="paint1_radial_382_2394" cx="0" cy="0" r="1" gradientUnits="userSpaceOnUse" gradientTransform="translate(195.5 9.64554) rotate(90.3797) scale(75.4447 304.567)">
<stop stop-color="#B2B9FF"/>
<stop offset="1" stop-color="white" stop-opacity="0"/>
</radialGradient>
</defs>
</svg>
