<svg width="40" height="40" viewBox="0 0 40 40" fill="none" xmlns="http://www.w3.org/2000/svg">
<g id="Non-categorized" clip-path="url(#clip0_135_15281)">
<g id="Group 1000004289">
<path id="Vector" d="M16.3323 6L18.774 8.73C19.2097 9.19839 19.5014 9.78226 19.6143 10.4119C19.7272 11.0416 19.6566 11.6904 19.4108 12.281C19.165 12.8716 18.7545 13.379 18.2282 13.7427C17.7019 14.1063 17.0821 14.3108 16.4427 14.3318C15.8034 14.3528 15.1715 14.1894 14.6225 13.8611C14.0734 13.5327 13.6305 13.0534 13.3465 12.4802C13.0625 11.9069 12.9494 11.2641 13.0208 10.6284C13.0922 9.99271 13.345 9.39096 13.749 8.895L16.3323 6Z" fill="#7691FF"/>
<path id="Union" d="M6.76972 13C5.23962 13 3.7722 13.6637 2.69026 14.8452C1.60832 16.0267 1.00049 17.6291 1.00049 19.3V32.74C1.00049 33.4359 1.51708 34 2.15433 34H29.8466C30.4839 34 31.0005 33.4359 31.0005 32.74V19.3C31.0005 17.6291 30.3927 16.0267 29.3107 14.8452C28.2288 13.6637 26.7614 13 25.2313 13H6.76972Z" fill="#DBECFF"/>
<path id="Intersect" fill-rule="evenodd" clip-rule="evenodd" d="M30.672 25.4094C31.7606 24.9103 31.9111 23.1213 31.7784 21.9311L31.5362 19.759C31.0725 17.6793 30.4621 16.1223 29.3749 14.9035C28.2878 13.6847 26.8133 13 25.2758 13H6.72505C5.18756 13 3.71304 13.6847 2.62587 14.9035C1.53871 16.1223 0.927536 17.6793 0.463768 19.759L0.284167 21.2945C0.108339 22.7979 0.260874 24.8902 1.62267 25.5508C2.24809 25.8542 2.93309 26.0112 3.62854 25.9993C4.41071 26.0134 5.18453 25.816 5.88442 25.4237C6.59143 25.0274 7.20175 24.4441 7.66267 23.7241C7.90411 23.347 8.2238 23.0415 8.59414 22.8339C8.96448 22.6263 9.37432 22.5229 9.78828 22.5326C9.80446 22.533 9.82065 22.533 9.83684 22.5326C10.2508 22.5229 10.6606 22.6263 11.031 22.8339C11.4013 23.0415 11.721 23.347 11.9624 23.7241C12.4234 24.4441 13.0337 25.0274 13.7407 25.4237C14.4405 25.8159 15.2141 26.0133 15.9961 25.9993C16.7782 26.0133 17.5518 25.8159 18.2516 25.4237C18.9586 25.0274 19.5689 24.4441 20.0298 23.7241C20.2713 23.347 20.591 23.0415 20.9613 22.8339C21.3316 22.6263 21.7415 22.5229 22.1554 22.5326C22.1716 22.533 22.1878 22.533 22.204 22.5326C22.6179 22.5229 23.0278 22.6263 23.3981 22.8339C23.7685 23.0415 24.0882 23.347 24.3296 23.7241C24.7905 24.4441 25.4008 25.0274 26.1078 25.4237C26.8078 25.816 27.5816 26.0134 28.3638 25.9993C29.0633 26.0112 29.7504 25.8551 30.3746 25.5483C30.4546 25.509 30.5564 25.4624 30.672 25.4094Z" fill="url(#paint0_linear_135_15281)"/>
</g>
</g>
<defs>
<linearGradient id="paint0_linear_135_15281" x1="48.2909" y1="38.0521" x2="-9.153" y2="62.4645" gradientUnits="userSpaceOnUse">
<stop stop-color="#71CBFF"/>
<stop offset="1" stop-color="#8C68FF"/>
</linearGradient>
<clipPath id="clip0_135_15281">
<rect width="40" height="40" fill="white"/>
</clipPath>
</defs>
</svg>
