<svg width="32" height="32" viewBox="0 0 32 32" fill="none" xmlns="http://www.w3.org/2000/svg">
<path d="M9.66667 7.33337C7.64162 7.33337 6 8.975 6 11V19.8334C6 21.3982 7.26853 22.6667 8.83333 22.6667C9.29357 22.6667 9.66667 23.0398 9.66667 23.5V26.3334C9.66667 26.7258 9.89614 27.0819 10.2535 27.244C10.6108 27.4061 11.0299 27.3443 11.3252 27.086L15.9045 23.0791C16.2083 22.8132 16.5983 22.6667 17.002 22.6667H22.3333C24.3584 22.6667 26 21.0251 26 19V11C26 8.975 24.3584 7.33337 22.3333 7.33337H9.66667Z" fill="url(#paint0_linear_2705_34756)" fill-opacity="0.5"/>
<circle cx="11.3319" cy="15.3333" r="1.33333" fill="url(#paint1_linear_2705_34756)"/>
<circle cx="15.9991" cy="15.3333" r="1.33333" fill="url(#paint2_linear_2705_34756)"/>
<circle cx="20.6661" cy="15.3333" r="1.33333" fill="url(#paint3_linear_2705_34756)"/>
<defs>
<linearGradient id="paint0_linear_2705_34756" x1="36.1818" y1="45.875" x2="-17.9679" y2="58.6436" gradientUnits="userSpaceOnUse">
<stop stop-color="#B9E5FF"/>
<stop offset="1" stop-color="#AD94FF"/>
</linearGradient>
<linearGradient id="paint1_linear_2705_34756" x1="14.0228" y1="19.1389" x2="9.83421" y2="18.91" gradientUnits="userSpaceOnUse">
<stop stop-color="#71CBFF"/>
<stop offset="1" stop-color="#8C68FF"/>
</linearGradient>
<linearGradient id="paint2_linear_2705_34756" x1="18.69" y1="19.1389" x2="14.5014" y2="18.91" gradientUnits="userSpaceOnUse">
<stop stop-color="#71CBFF"/>
<stop offset="1" stop-color="#8C68FF"/>
</linearGradient>
<linearGradient id="paint3_linear_2705_34756" x1="23.357" y1="19.1389" x2="19.1684" y2="18.91" gradientUnits="userSpaceOnUse">
<stop stop-color="#71CBFF"/>
<stop offset="1" stop-color="#8C68FF"/>
</linearGradient>
</defs>
</svg>
