<svg width="24" height="24" viewBox="0 0 24 24" fill="none" xmlns="http://www.w3.org/2000/svg">
<g id="icons" clip-path="url(#clip0_1578_12069)">
<path id="Vector" d="M15 3C15.5046 2.99984 15.9906 3.19041 16.3605 3.5335C16.7305 3.87659 16.9572 4.34684 16.995 4.85L17 5C17 5.24493 17.09 5.48134 17.2527 5.66437C17.4155 5.84741 17.6397 5.96434 17.883 5.993L18 6H19C19.7652 5.99996 20.5015 6.29233 21.0583 6.81728C21.615 7.34224 21.9501 8.06011 21.995 8.824L22 9V18C22 18.7652 21.7077 19.5015 21.1827 20.0583C20.6578 20.615 19.9399 20.9501 19.176 20.995L19 21H5C4.23479 21 3.49849 20.7077 2.94174 20.1827C2.38499 19.6578 2.04989 18.9399 2.005 18.176L2 18V9C1.99996 8.23479 2.29233 7.49849 2.81728 6.94174C3.34224 6.38499 4.06011 6.04989 4.824 6.005L5 6H6C6.26522 6 6.51957 5.89464 6.70711 5.70711C6.89464 5.51957 7 5.26522 7 5C6.99984 4.49542 7.19041 4.00943 7.5335 3.63945C7.87659 3.26947 8.34685 3.04284 8.85 3.005L9 3H15ZM12 10C11.2566 9.99994 10.5396 10.2759 9.98813 10.7744C9.43662 11.2729 9.08984 11.9584 9.015 12.698L9.004 12.85L9 13L9.004 13.15C9.03335 13.7362 9.23402 14.301 9.58117 14.7743C9.92832 15.2476 10.4067 15.6087 10.957 15.8128C11.5074 16.0169 12.1055 16.0551 12.6773 15.9226C13.2491 15.7901 13.7695 15.4928 14.174 15.0675C14.5786 14.6422 14.8494 14.1076 14.9531 13.5298C15.0568 12.9521 14.9887 12.3566 14.7572 11.8172C14.5258 11.2778 14.1412 10.8181 13.6511 10.4951C13.1611 10.1721 12.587 9.99995 12 10Z" fill="#8490A0"/>
</g>
<defs>
<clipPath id="clip0_1578_12069">
<rect width="24" height="24" fill="white"/>
</clipPath>
</defs>
</svg>
