<svg width="32" height="32" viewBox="0 0 32 32" fill="none" xmlns="http://www.w3.org/2000/svg">
<path d="M17.3075 5.84962C18.0689 5.14267 19.253 5.16459 19.9877 5.89924L22.7979 8.70943C23.5325 9.44408 23.5544 10.6282 22.8475 11.3896L13.31 21.6608C13.0907 21.8969 12.783 22.0311 12.4607 22.0311H7.82495C7.18489 22.0311 6.66602 21.5122 6.66602 20.8721V16.2364C6.66602 15.9141 6.8002 15.6064 7.03635 15.3871L17.3075 5.84962Z" fill="#333D4B"/>
<path d="M6.66602 25.5079C6.66602 24.8678 7.18489 24.349 7.82495 24.349H24.0501C24.6902 24.349 25.209 24.8678 25.209 25.5079C25.209 26.148 24.6902 26.6668 24.0501 26.6668H7.82495C7.18489 26.6668 6.66602 26.148 6.66602 25.5079Z" fill="#333D4B"/>
</svg>
