<svg width="20" height="26" viewBox="0 0 20 26" fill="none" xmlns="http://www.w3.org/2000/svg">
<path d="M9.72287 9.11103C8.95581 9.11103 8.33398 8.4892 8.33398 7.72214C8.33398 6.95508 8.95581 6.33325 9.72287 6.33325C10.4899 6.33325 11.1118 6.95508 11.1118 7.72214C11.1118 8.4892 10.4899 9.11103 9.72287 9.11103Z" fill="#8490A0"/>
<path d="M9.72287 14.3888C8.95581 14.3888 8.33398 13.767 8.33398 12.9999C8.33398 12.2329 8.95581 11.611 9.72287 11.611C10.4899 11.611 11.1118 12.2329 11.1118 12.9999C11.1118 13.767 10.4899 14.3888 9.72287 14.3888Z" fill="#8490A0"/>
<path d="M8.33398 18.2777C8.33398 19.0448 8.95581 19.6666 9.72287 19.6666C10.4899 19.6666 11.1118 19.0448 11.1118 18.2777C11.1118 17.5106 10.4899 16.8888 9.72287 16.8888C8.95581 16.8888 8.33398 17.5106 8.33398 18.2777Z" fill="#8490A0"/>
</svg>
