<svg width="4" height="14" viewBox="0 0 4 14" fill="none" xmlns="http://www.w3.org/2000/svg">
<g id="Vector">
<path d="M1.72214 3.11111C0.955079 3.11111 0.333252 2.48928 0.333252 1.72222C0.333252 0.955161 0.955079 0.333334 1.72214 0.333334C2.4892 0.333334 3.11103 0.955161 3.11103 1.72222C3.11103 2.48928 2.4892 3.11111 1.72214 3.11111Z" fill="#8490A0"/>
<path d="M1.72214 8.38889C0.955079 8.38889 0.333252 7.76706 0.333252 7C0.333252 6.23294 0.955079 5.61111 1.72214 5.61111C2.4892 5.61111 3.11103 6.23294 3.11103 7C3.11103 7.76706 2.4892 8.38889 1.72214 8.38889Z" fill="#8490A0"/>
<path d="M0.333252 12.2778C0.333252 13.0448 0.955079 13.6667 1.72214 13.6667C2.4892 13.6667 3.11103 13.0448 3.11103 12.2778C3.11103 11.5107 2.4892 10.8889 1.72214 10.8889C0.955079 10.8889 0.333252 11.5107 0.333252 12.2778Z" fill="#8490A0"/>
</g>
</svg>
