<svg xmlns="http://www.w3.org/2000/svg" width="40" height="40" viewBox="0 0 40 40" fill="currentColor">
  <rect x="11.5" y="10.5" width="17" height="15" fill="#EFF1F3"/>
  <path fill-rule="evenodd" clip-rule="evenodd" d="M31.6732 10.5003C31.6732 8.65938 30.1808 7.16699 28.3398 7.16699H11.6732C9.83223 7.16699 8.33984 8.65938 8.33984 10.5003V28.8337C8.33984 30.6746 9.83223 32.167 11.6732 32.167H28.3398C30.1808 32.167 31.6732 30.6746 31.6732 28.8337V10.5003ZM14.1431 12.1672C13.698 12.1672 13.3372 12.5709 13.3372 13.0689C13.3372 13.5668 13.698 13.9705 14.1431 13.9705H25.8647C26.3098 13.9705 26.6706 13.5668 26.6706 13.0689C26.6706 12.5709 26.3098 12.1672 25.8647 12.1672H14.1431ZM13.3372 17.167C13.3372 16.6691 13.698 16.2654 14.1431 16.2654H25.8647C26.3098 16.2654 26.6706 16.6691 26.6706 17.167C26.6706 17.665 26.3098 18.0687 25.8647 18.0687H14.1431C13.698 18.0687 13.3372 17.665 13.3372 17.167ZM14.1431 20.3638C13.698 20.3638 13.3372 20.7674 13.3372 21.2654C13.3372 21.7634 13.698 22.167 14.1431 22.167H25.8647C26.3098 22.167 26.6706 21.7634 26.6706 21.2654C26.6706 20.7674 26.3098 20.3638 25.8647 20.3638H14.1431Z" fill="currentColor"/>
</svg>
