<svg width="25" height="24" viewBox="0 0 25 24" fill="none" xmlns="http://www.w3.org/2000/svg">
<g clip-path="url(#clip0_263_2225)">
<path d="M20.3442 12.1842C20.3442 11.6403 20.3001 11.0936 20.206 10.5586H12.6602V13.6392H16.9813C16.802 14.6328 16.2258 15.5117 15.3822 16.0703V18.0692H17.9602C19.4741 16.6758 20.3442 14.6181 20.3442 12.1842Z" fill="#4285F4"/>
<path d="M12.6602 20.0005C14.8179 20.0005 16.6375 19.292 17.9632 18.0692L15.3852 16.0703C14.6679 16.5582 13.742 16.8346 12.6632 16.8346C10.5761 16.8346 8.80647 15.4265 8.17153 13.5334H5.51123V15.5941C6.86931 18.2955 9.63543 20.0005 12.6602 20.0005Z" fill="#34A853"/>
<path d="M8.16852 13.5336C7.83341 12.54 7.83341 11.4641 8.16852 10.4705V8.40991H5.51116C4.37649 10.6704 4.37649 13.3337 5.51116 15.5942L8.16852 13.5336Z" fill="#FBBC04"/>
<path d="M12.6602 7.16644C13.8008 7.1488 14.9031 7.57798 15.7291 8.36578L18.0132 6.08174C16.5669 4.72367 14.6474 3.97702 12.6602 4.00054C9.63543 4.00054 6.86931 5.70548 5.51123 8.40987L8.16859 10.4705C8.80059 8.57449 10.5731 7.16644 12.6602 7.16644Z" fill="#EA4335"/>
</g>
<defs>
<clipPath id="clip0_263_2225">
<rect width="16" height="16" fill="white" transform="translate(4.5 4)"/>
</clipPath>
</defs>
</svg>
