<svg xmlns="http://www.w3.org/2000/svg" width="33" height="32" viewBox="0 0 33 32" fill="currentColor">
  <g clip-path="url(#clip0_3012_29353)">
    <path fill-rule="evenodd" clip-rule="evenodd" d="M18.4111 7.32239L24.633 12.1617C25.3913 12.7509 25.8346 13.6574 25.8346 14.6176V23.0176C25.8346 23.6364 25.5888 24.2299 25.1512 24.6675C24.7136 25.1051 24.1201 25.3509 23.5013 25.3509H16.5013H9.5013C8.88246 25.3509 8.28897 25.1051 7.85139 24.6675C7.4138 24.2299 7.16797 23.6364 7.16797 23.0176V14.6176C7.16775 14.1438 7.27579 13.6763 7.48385 13.2506C7.69191 12.825 7.99449 12.4526 8.36847 12.1617L14.5915 7.32239C15.1375 6.89762 15.8095 6.66699 16.5013 6.66699C17.1931 6.66699 17.8651 6.89762 18.4111 7.32239ZM16.1281 20.0003C15.3034 20.0003 14.6348 20.6689 14.6348 21.4937V25.3337H16.5014H18.3681V21.4937C18.3681 20.6689 17.6995 20.0003 16.8748 20.0003H16.1281Z" fill="white"/>
  </g>
  <defs>
    <clipPath id="clip0_3012_29353">
      <rect width="32" height="32" fill="white" transform="translate(0.5)"/>
    </clipPath>
  </defs>
</svg>
