<svg width="28" height="28" viewBox="0 0 28 28" fill="none" xmlns="http://www.w3.org/2000/svg">
<circle cx="14" cy="14" r="14" fill="url(#paint0_linear_2376_37485)"/>
<path d="M19.3334 14.8889H14.8889V19.3333C14.8889 19.8222 14.4889 20.2222 14.0001 20.2222C13.5112 20.2222 13.1112 19.8222 13.1112 19.3333V14.8889H8.66672C8.17783 14.8889 7.77783 14.4889 7.77783 14C7.77783 13.5111 8.17783 13.1111 8.66672 13.1111H13.1112V8.66666C13.1112 8.17777 13.5112 7.77777 14.0001 7.77777C14.4889 7.77777 14.8889 8.17777 14.8889 8.66666V13.1111H19.3334C19.8223 13.1111 20.2223 13.5111 20.2223 14C20.2223 14.4889 19.8223 14.8889 19.3334 14.8889Z" fill="white"/>
<defs>
<linearGradient id="paint0_linear_2376_37485" x1="42.2545" y1="53.9583" x2="-1.72546" y2="51.5555" gradientUnits="userSpaceOnUse">
<stop stop-color="#71CBFF"/>
<stop offset="1" stop-color="#8C68FF"/>
</linearGradient>
</defs>
</svg>
