<svg width="18" height="18" viewBox="0 0 18 18" fill="none" xmlns="http://www.w3.org/2000/svg">
<g id="ShareNetwork">
<path id="Vector" d="M14.9065 14.0625C14.9066 14.432 14.8257 14.7969 14.6697 15.1318C14.5137 15.4667 14.2862 15.7634 14.0033 16.001C13.7204 16.2387 13.389 16.4115 13.0322 16.5074C12.6754 16.6032 12.3019 16.6199 11.938 16.556C11.5741 16.4922 11.2286 16.3495 10.9257 16.1379C10.6228 15.9264 10.37 15.6511 10.1848 15.3313C9.99966 15.0116 9.88674 14.6553 9.85398 14.2873C9.82123 13.9193 9.86942 13.5486 9.99519 13.2012L6.26862 10.807C5.91271 11.1562 5.46162 11.3924 4.97196 11.4861C4.48229 11.5798 3.97585 11.5269 3.51617 11.3339C3.05649 11.1409 2.66404 10.8164 2.38805 10.4012C2.11207 9.98601 1.96484 9.49856 1.96484 9C1.96484 8.50145 2.11207 8.01399 2.38805 7.59879C2.66404 7.18359 3.05649 6.85914 3.51617 6.66613C3.97585 6.47312 4.48229 6.42016 4.97196 6.51389C5.46162 6.60761 5.91271 6.84385 6.26862 7.19297L9.99519 4.80235C9.78179 4.21597 9.79194 3.57153 10.0237 2.99216C10.2554 2.41279 10.6925 1.93912 11.2514 1.66165C11.8103 1.38418 12.4519 1.32238 13.0535 1.48804C13.6551 1.6537 14.1745 2.03522 14.5126 2.5597C14.8507 3.08417 14.9837 3.71482 14.8862 4.33115C14.7886 4.94748 14.4674 5.50626 13.984 5.90074C13.5005 6.29521 12.8886 6.49771 12.2652 6.46955C11.6419 6.44138 11.0507 6.18452 10.6048 5.74805L6.87823 8.14219C7.07964 8.69875 7.07964 9.30829 6.87823 9.86485L10.6048 12.259C10.9606 11.9108 11.4112 11.6752 11.9002 11.5818C12.3892 11.4883 12.8949 11.5412 13.354 11.7336C13.8131 11.9261 14.2053 12.2497 14.4814 12.664C14.7576 13.0782 14.9054 13.5647 14.9065 14.0625Z" fill="url(#paint0_linear_3122_32928)"/>
</g>
<defs>
<linearGradient id="paint0_linear_3122_32928" x1="21.5114" y1="30.6831" x2="1.15009" y2="29.7349" gradientUnits="userSpaceOnUse">
<stop stop-color="#71CBFF"/>
<stop offset="1" stop-color="#8C68FF"/>
</linearGradient>
</defs>
</svg>
