<svg width="16" height="18" viewBox="0 0 16 18" fill="none" xmlns="http://www.w3.org/2000/svg">
<path id="Vector" d="M15.4874 14.8678C15.4875 15.2957 15.3939 15.7184 15.2132 16.1062C15.0325 16.494 14.7691 16.8376 14.4415 17.1128C14.1139 17.388 13.73 17.5881 13.3168 17.6992C12.9036 17.8102 12.4711 17.8295 12.0497 17.7555C11.6283 17.6816 11.2281 17.5164 10.8774 17.2714C10.5266 17.0263 10.2338 16.7075 10.0193 16.3373C9.80493 15.967 9.67417 15.5543 9.63623 15.1281C9.59829 14.702 9.65411 14.2727 9.79975 13.8704L5.48411 11.0978C5.07193 11.5021 4.54954 11.7757 3.98247 11.8842C3.4154 11.9927 2.8289 11.9314 2.29655 11.7079C1.76421 11.4844 1.30972 11.1086 0.99011 10.6278C0.6705 10.147 0.5 9.58245 0.5 9.00509C0.5 8.42772 0.6705 7.86321 0.99011 7.38238C1.30972 6.90154 1.76421 6.5258 2.29655 6.30228C2.8289 6.07876 3.4154 6.01743 3.98247 6.12597C4.54954 6.23451 5.07193 6.5081 5.48411 6.91241L9.79975 4.14388C9.55263 3.46481 9.56437 2.7185 9.83274 2.04755C10.1011 1.37659 10.6073 0.828042 11.2545 0.506712C11.9018 0.185383 12.6448 0.113806 13.3415 0.305657C14.0382 0.497509 14.6398 0.939337 15.0313 1.54672C15.4228 2.1541 15.5768 2.88444 15.4639 3.5982C15.3509 4.31195 14.979 4.95907 14.4191 5.4159C13.8591 5.87273 13.1505 6.10724 12.4286 6.07462C11.7067 6.042 11.0222 5.74454 10.5057 5.23908L6.19008 8.01167C6.42332 8.65621 6.42332 9.3621 6.19008 10.0066L10.5057 12.7792C10.9178 12.376 11.4396 12.1032 12.0059 11.995C12.5722 11.8868 13.1578 11.9479 13.6895 12.1709C14.2212 12.3938 14.6753 12.7685 14.9951 13.2482C15.3149 13.7279 15.4862 14.2913 15.4874 14.8678Z" fill="#69B1FF"/>
</svg>
