<svg width="40" height="40" viewBox="0 0 40 40" fill="none" xmlns="http://www.w3.org/2000/svg">
<g clip-path="url(#clip0_135_15287)">
<path d="M0.000488281 20C0.000488252 21.9698 0.388475 23.9204 1.1423 25.7403C1.89612 27.5601 3.00101 29.2137 4.39389 30.6066C5.78677 31.9995 7.44035 33.1044 9.26024 33.8582C11.0801 34.612 13.0307 35 15.0005 35C16.9703 35 18.9209 34.612 20.7407 33.8582C22.5606 33.1044 24.2142 31.9995 25.6071 30.6066C27 29.2137 28.1049 27.5601 28.8587 25.7403C29.6125 23.9204 30.0005 21.9698 30.0005 20C30.0005 18.0302 29.6125 16.0796 28.8587 14.2597C28.1049 12.4399 27 10.7863 25.6071 9.3934C24.2142 8.00052 22.5606 6.89563 20.7407 6.14181C18.9209 5.38799 16.9703 5 15.0005 5C13.0307 5 11.0801 5.38799 9.26024 6.14181C7.44035 6.89563 5.78677 8.00052 4.39389 9.3934C3.00101 10.7863 1.89612 12.4399 1.1423 14.2597C0.388475 16.0796 0.000488252 18.0302 0.000488281 20Z" fill="url(#paint0_linear_135_15287)" fill-opacity="0.5"/>
<path d="M11.0005 16.6667H11.0172" stroke="#7691FF" stroke-width="2.5" stroke-linecap="round" stroke-linejoin="round"/>
<path d="M19.0005 16.6667H19.0172" stroke="#7691FF" stroke-width="2.5" stroke-linecap="round" stroke-linejoin="round"/>
<path d="M10.834 25C11.3771 25.5543 12.0254 25.9947 12.7409 26.2954C13.4563 26.596 14.2246 26.7509 15.0007 26.7509C15.7767 26.7509 16.545 26.596 17.2604 26.2954C17.9759 25.9947 18.6242 25.5543 19.1673 25" stroke="#7691FF" stroke-width="2.5" stroke-linecap="round" stroke-linejoin="round"/>
</g>
<defs>
<linearGradient id="paint0_linear_135_15287" x1="45.2732" y1="62.8124" x2="-35.9514" y2="81.9653" gradientUnits="userSpaceOnUse">
<stop stop-color="#B9E5FF"/>
<stop offset="1" stop-color="#AD94FF"/>
</linearGradient>
<clipPath id="clip0_135_15287">
<rect width="40" height="40" fill="white"/>
</clipPath>
</defs>
</svg>
