<svg width="32" height="32" viewBox="0 0 32 32" fill="current" xmlns="http://www.w3.org/2000/svg">
<g id="icons">
<path id="Vector" fill-rule="evenodd" clip-rule="evenodd"  fill="current" d="M16 4C9.37258 4 4 9.37258 4 16C4 22.6274 9.37258 28 16 28C22.6274 28 28 22.6274 28 16C28 9.37258 22.6274 4 16 4ZM14.875 14.216V20.5C14.875 21.1213 15.3787 21.625 16 21.625C16.6213 21.625 17.125 21.1213 17.125 20.5V14.216L18.9545 16.0455C19.3938 16.4848 20.1062 16.4848 20.5455 16.0455C20.9848 15.6062 20.9848 14.8938 20.5455 14.4545L16.7955 10.7045C16.6876 10.5966 16.5633 10.5153 16.4306 10.4604C16.298 10.4054 16.1525 10.375 16 10.375C15.8475 10.375 15.702 10.4054 15.5694 10.4604C15.4367 10.5153 15.3124 10.5966 15.2045 10.7045L11.4545 14.4545C11.0152 14.8938 11.0152 15.6062 11.4545 16.0455C11.8938 16.4848 12.6062 16.4848 13.0455 16.0455L14.875 14.216Z"/>
</g>
</svg>
