<svg width="current" height="current" viewBox="0 0 20 17" fill="current" xmlns="http://www.w3.org/2000/svg">
<g id="thumbs-icon" clip-path="url(#clip0_1781_18370)">
<path id="Vector" d="M10.6949 2.25C11.2263 2.24997 11.7376 2.453 12.1242 2.81756C12.5109 3.18211 12.7436 3.68063 12.7747 4.21111L12.7782 4.33333V7.11111H14.1671C14.6776 7.11103 15.1704 7.29839 15.5519 7.63763C15.9333 7.97687 16.177 8.44437 16.2365 8.95139L16.247 9.07222L16.2504 9.19444L16.2365 9.33056L15.5379 12.825C15.2734 13.9542 14.4949 14.7667 13.5865 14.7556L13.4727 14.75H7.9171C7.74701 14.75 7.58284 14.6875 7.45573 14.5745C7.32862 14.4615 7.24742 14.3057 7.22752 14.1368L7.22266 14.0556L7.22335 7.43333C7.22348 7.31155 7.25562 7.19195 7.31657 7.08651C7.37751 6.98108 7.46511 6.89353 7.57057 6.83264C7.8667 6.66161 8.11614 6.42027 8.29685 6.12995C8.47756 5.83963 8.58397 5.50927 8.60668 5.16806L8.61155 5.02778V4.33333C8.61155 3.7808 8.83104 3.2509 9.22174 2.86019C9.61244 2.46949 10.1423 2.25 10.6949 2.25Z" fill="#69B1FF"/>
<path id="Vector_2" d="M5.13802 7.11133C5.30811 7.11135 5.47228 7.1738 5.59939 7.28682C5.7265 7.39985 5.8077 7.5556 5.8276 7.72452L5.83247 7.80577V14.0558C5.83244 14.2259 5.77 14.39 5.65697 14.5171C5.54394 14.6442 5.3882 14.7255 5.21927 14.7454L5.13802 14.7502H4.44358C4.09318 14.7503 3.75568 14.618 3.49875 14.3797C3.24182 14.1415 3.08444 13.8149 3.05816 13.4655L3.05469 13.3613V8.50022C3.05458 8.14982 3.18691 7.81232 3.42517 7.55539C3.66343 7.29846 3.99 7.14108 4.33941 7.1148L4.44358 7.11133H5.13802Z" fill="#69B1FF"/>
</g>
<defs>
<clipPath id="clip0_1781_18370">
<rect width="20" height="20" fill="white" transform="translate(0 -1.5)"/>
</clipPath>
</defs>
</svg>
