<svg width="24" height="24" viewBox="0 0 24 24" fill="none" xmlns="http://www.w3.org/2000/svg">
<path fill-rule="evenodd" clip-rule="evenodd" d="M12 21C16.9706 21 21 16.9706 21 12C21 7.02944 16.9706 3 12 3C7.02944 3 3 7.02944 3 12C3 16.9706 7.02944 21 12 21ZM12.9321 8.29591C12.9415 7.85914 12.59 7.5 12.1531 7.5C11.7157 7.5 11.3639 7.86009 11.3742 8.29744L11.4806 12.827C11.4892 13.1947 11.7898 13.4883 12.1576 13.4883C12.5259 13.4883 12.8266 13.1939 12.8346 12.8257L12.9321 8.29591ZM11.25 15.1641C11.25 15.668 11.6602 16.0781 12.1641 16.0781C12.6445 16.0781 13.0664 15.668 13.0664 15.1641C13.0664 14.6719 12.6445 14.2617 12.1641 14.2617C11.6602 14.2617 11.25 14.6719 11.25 15.1641Z" fill="#8490A0"/>
</svg>
