<svg width="24" height="24" viewBox="0 0 24 24" fill="none" xmlns="http://www.w3.org/2000/svg">
<g id="icons">
<g id="Vector">
<path d="M8.25 5.25C8.25 4.83579 8.58579 4.5 9 4.5H15C15.4142 4.5 15.75 4.83579 15.75 5.25C15.75 5.66421 15.4142 6 15 6H9C8.58579 6 8.25 5.66421 8.25 5.25Z" fill="#8490A0"/>
<path fill-rule="evenodd" clip-rule="evenodd" d="M5.25 7.25C4.83579 7.25 4.5 7.58579 4.5 8C4.5 8.41421 4.83579 8.75 5.25 8.75H6.5V16.75C6.5 18.2688 7.73122 19.5 9.25 19.5H14.75C16.2688 19.5 17.5 18.2688 17.5 16.75V8.75H18.75C19.1642 8.75 19.5 8.41421 19.5 8C19.5 7.58579 19.1642 7.25 18.75 7.25H5.25ZM10.5 10.75C10.9142 10.75 11.25 11.0858 11.25 11.5V15.25C11.25 15.6642 10.9142 16 10.5 16C10.0858 16 9.75 15.6642 9.75 15.25V11.5C9.75 11.0858 10.0858 10.75 10.5 10.75ZM13.5 10.75C13.9142 10.75 14.25 11.0858 14.25 11.5V15.25C14.25 15.6642 13.9142 16 13.5 16C13.0858 16 12.75 15.6642 12.75 15.25V11.5C12.75 11.0858 13.0858 10.75 13.5 10.75Z" fill="#8490A0"/>
</g>
</g>
</svg>
