<svg width="32" height="32" viewBox="0 0 32 32" fill="#333D4B" xmlns="http://www.w3.org/2000/svg">
    <g id="Component 1/Variant24" clip-path="url(#clip0_486_4471)">
        <path id="Vector"
            d="M21.3875 23.5425L16 18.155L10.6125 23.5425C10.0199 24.1351 9.05015 24.1351 8.45753 23.5425C7.86491 22.9498 7.86491 21.9801 8.45753 21.3875L13.845 16L8.45753 10.6125C7.86491 10.0199 7.86491 9.05015 8.45753 8.45753C9.05015 7.86491 10.0199 7.86491 10.6125 8.45753L16 13.845L21.3875 8.45753C21.9801 7.86491 22.9499 7.86491 23.5425 8.45753C24.1351 9.05015 24.1351 10.0199 23.5425 10.6125L18.155 16L23.5425 21.3875C24.1351 21.9801 24.1351 22.9498 23.5425 23.5425C22.9499 24.1351 21.9801 24.1351 21.3875 23.5425Z"
            fill="#333D4B" />
    </g>
</svg>