<svg width="32" height="32" viewBox="0 0 32 32" fill="none" xmlns="http://www.w3.org/2000/svg">
<g id="icons">
<g id="Vector">
<path d="M11 7C11 6.44772 11.4477 6 12 6H20C20.5523 6 21 6.44772 21 7C21 7.55228 20.5523 8 20 8H12C11.4477 8 11 7.55228 11 7Z" fill="#333D4B"/>
<path fill-rule="evenodd" clip-rule="evenodd" d="M7 9.66667C6.44772 9.66667 6 10.1144 6 10.6667C6 11.219 6.44772 11.6667 7 11.6667H8.66667V22.3333C8.66667 24.3584 10.3083 26 12.3333 26H19.6667C21.6917 26 23.3333 24.3584 23.3333 22.3333V11.6667H25C25.5523 11.6667 26 11.219 26 10.6667C26 10.1144 25.5523 9.66667 25 9.66667H7ZM14 14.3333C14.5523 14.3333 15 14.781 15 15.3333V20.3333C15 20.8856 14.5523 21.3333 14 21.3333C13.4477 21.3333 13 20.8856 13 20.3333V15.3333C13 14.781 13.4477 14.3333 14 14.3333ZM18 14.3333C18.5523 14.3333 19 14.781 19 15.3333V20.3333C19 20.8856 18.5523 21.3333 18 21.3333C17.4477 21.3333 17 20.8856 17 20.3333V15.3333C17 14.781 17.4477 14.3333 18 14.3333Z" fill="#333D4B"/>
</g>
</g>
</svg>
