<svg width="60" height="60" viewBox="0 0 60 60" fill="none" xmlns="http://www.w3.org/2000/svg">
<circle cx="30" cy="30" r="30" fill="black"/>
<path d="M30.4432 20.3747C31.6761 20.3747 33.2215 19.5156 34.1418 18.3701C34.9753 17.332 35.5831 15.8823 35.5831 14.4325C35.5831 14.2356 35.5657 14.0388 35.531 13.8777C34.1592 13.9314 32.5096 14.8263 31.5198 16.0255C30.7384 16.9383 30.0265 18.3701 30.0265 19.8377C30.0265 20.0525 30.0612 20.2673 30.0786 20.3389C30.1654 20.3568 30.3043 20.3747 30.4432 20.3747ZM26.1021 42.0313C27.7864 42.0313 28.5331 40.868 30.6342 40.868C32.7701 40.868 33.2389 41.9955 35.1143 41.9955C36.9549 41.9955 38.1878 40.2415 39.3512 38.5233C40.6535 36.5545 41.1918 34.6215 41.2266 34.532C41.105 34.4962 37.58 33.0107 37.58 28.8405C37.58 25.2251 40.3583 23.5963 40.5146 23.471C38.674 20.7505 35.8783 20.6789 35.1143 20.6789C33.0479 20.6789 31.3635 21.9676 30.3043 21.9676C29.1582 21.9676 27.6475 20.7505 25.859 20.7505C22.4555 20.7505 19 23.65 19 29.1268C19 32.5275 20.285 36.125 21.8651 38.4517C23.2196 40.4205 24.4004 42.0313 26.1021 42.0313Z" fill="white"/>
</svg>
