<svg width="60" height="60" viewBox="0 0 60 60" fill="none" xmlns="http://www.w3.org/2000/svg">
<circle cx="30" cy="30" r="30" fill="#333D4B"/>
<path d="M45.0042 30.0629C45.0042 29.0432 44.9198 28.018 44.7399 27.0149H30.3047V32.7911H38.5711C38.228 34.6541 37.1258 36.3021 35.5119 37.3493V41.0972H40.4436C43.3397 38.4847 45.0042 34.6265 45.0042 30.0629Z" fill="#4285F4"/>
<path d="M30.3069 44.7182C34.4344 44.7182 37.9153 43.3899 40.4514 41.0971L35.5197 37.3491C34.1476 38.2641 32.3763 38.7821 30.3125 38.7821C26.3199 38.7821 22.9347 36.1421 21.72 32.5925H16.6309V36.4562C19.2289 41.5215 24.5204 44.7182 30.3069 44.7182V44.7182Z" fill="#34A853"/>
<path d="M21.7154 32.5927C21.0743 30.7298 21.0743 28.7125 21.7154 26.8495V22.9858H16.6319C14.4613 27.2243 14.4613 32.2179 16.6319 36.4564L21.7154 32.5927V32.5927Z" fill="#FBBC04"/>
<path d="M30.3069 20.6546C32.4888 20.6216 34.5975 21.4263 36.1777 22.9034L40.547 18.6208C37.7803 16.0744 34.1083 14.6744 30.3069 14.7185C24.5204 14.7185 19.2289 17.9153 16.6309 22.9861L21.7144 26.8498C22.9234 23.2947 26.3143 20.6546 30.3069 20.6546V20.6546Z" fill="#EA4335"/>
</svg>
