<svg width="40" height="40" viewBox="0 0 40 40" fill="none" xmlns="http://www.w3.org/2000/svg">
<g id="today">
<g id="Ellipse 2575" filter="url(#filter0_i_1115_1526)">
<circle cx="20" cy="20" r="16" fill="white"/>
</g>
<g id="Vector" filter="url(#filter1_i_1115_1526)">
<path d="M22.7488 9.7062L24.1773 12.602L27.3736 13.066C29.8869 13.4312 30.8901 16.5181 29.0706 18.2904L26.7571 20.546L27.3027 23.7296C27.7324 26.2322 25.1053 28.1398 22.8584 26.9583L19.9993 25.4546L17.1402 26.9583C14.8933 28.1398 12.2662 26.2322 12.6958 23.7296L13.2414 20.546L10.9279 18.2904C9.11063 16.5181 10.1138 13.4312 12.6249 13.066L15.8212 12.602L17.2497 9.7062C18.3775 7.43127 21.6254 7.43127 22.7488 9.7062Z" fill="url(#paint0_linear_1115_1526)"/>
<path d="M22.7488 9.7062L24.1773 12.602L27.3736 13.066C29.8869 13.4312 30.8901 16.5181 29.0706 18.2904L26.7571 20.546L27.3027 23.7296C27.7324 26.2322 25.1053 28.1398 22.8584 26.9583L19.9993 25.4546L17.1402 26.9583C14.8933 28.1398 12.2662 26.2322 12.6958 23.7296L13.2414 20.546L10.9279 18.2904C9.11063 16.5181 10.1138 13.4312 12.6249 13.066L15.8212 12.602L17.2497 9.7062C18.3775 7.43127 21.6254 7.43127 22.7488 9.7062Z" fill="url(#paint1_linear_1115_1526)" fill-opacity="0.2"/>
</g>
</g>
<defs>
<filter id="filter0_i_1115_1526" x="4" y="3" width="32" height="33" filterUnits="userSpaceOnUse" color-interpolation-filters="sRGB">
<feFlood flood-opacity="0" result="BackgroundImageFix"/>
<feBlend mode="normal" in="SourceGraphic" in2="BackgroundImageFix" result="shape"/>
<feColorMatrix in="SourceAlpha" type="matrix" values="0 0 0 0 0 0 0 0 0 0 0 0 0 0 0 0 0 0 127 0" result="hardAlpha"/>
<feOffset dy="-2"/>
<feGaussianBlur stdDeviation="0.5"/>
<feComposite in2="hardAlpha" operator="arithmetic" k2="-1" k3="1"/>
<feColorMatrix type="matrix" values="0 0 0 0 0.803922 0 0 0 0 0.862745 0 0 0 0 0.937255 0 0 0 1 0"/>
<feBlend mode="normal" in2="shape" result="effect1_innerShadow_1115_1526"/>
</filter>
<filter id="filter1_i_1115_1526" x="10" y="7" width="20" height="20.3174" filterUnits="userSpaceOnUse" color-interpolation-filters="sRGB">
<feFlood flood-opacity="0" result="BackgroundImageFix"/>
<feBlend mode="normal" in="SourceGraphic" in2="BackgroundImageFix" result="shape"/>
<feColorMatrix in="SourceAlpha" type="matrix" values="0 0 0 0 0 0 0 0 0 0 0 0 0 0 0 0 0 0 127 0" result="hardAlpha"/>
<feOffset dy="-2"/>
<feGaussianBlur stdDeviation="0.5"/>
<feComposite in2="hardAlpha" operator="arithmetic" k2="-1" k3="1"/>
<feColorMatrix type="matrix" values="0 0 0 0 0.835514 0 0 0 0 0.814917 0 0 0 0 0.32058 0 0 0 1 0"/>
<feBlend mode="normal" in2="shape" result="effect1_innerShadow_1115_1526"/>
</filter>
<linearGradient id="paint0_linear_1115_1526" x1="29" y1="10" x2="18.9805" y2="25.0879" gradientUnits="userSpaceOnUse">
<stop stop-color="#FFF595"/>
<stop offset="0.0001" stop-color="#FFFACF"/>
<stop offset="1" stop-color="#FFEB65"/>
</linearGradient>
<linearGradient id="paint1_linear_1115_1526" x1="17.5" y1="9.5" x2="20" y2="27.3171" gradientUnits="userSpaceOnUse">
<stop stop-color="#FFA800"/>
<stop offset="1" stop-color="white" stop-opacity="0"/>
</linearGradient>
</defs>
</svg>
