<svg xmlns="http://www.w3.org/2000/svg" width="20" height="20" viewBox="0 0 20 20" fill="none">
  <g clip-path="url(#clip0_3081_1167)">
    <path d="M13.3322 4.22665C14.3377 4.80722 15.1741 5.64035 15.7587 6.64354C16.3433 7.64674 16.6558 8.78522 16.6651 9.94628C16.6745 11.1073 16.3805 12.2507 15.8122 13.2632C15.2439 14.2757 14.421 15.1223 13.425 15.719C12.429 16.3157 11.2944 16.642 10.1335 16.6655C8.97265 16.689 7.82579 16.4089 6.80644 15.853C5.7871 15.297 4.93063 14.4845 4.32182 13.4958C3.71301 12.5071 3.37297 11.3765 3.33536 10.2161L3.33203 10.0001L3.33536 9.78405C3.3727 8.63269 3.70773 7.51066 4.3078 6.52734C4.90787 5.54401 5.7525 4.73295 6.75933 4.17323C7.76617 3.61351 8.90086 3.32423 10.0528 3.33359C11.2047 3.34295 12.3345 3.65064 13.3322 4.22665ZM9.99878 6C9.83549 6.00002 9.67788 6.05997 9.55586 6.16848C9.43383 6.27699 9.35588 6.42651 9.33677 6.58868L9.3321 6.66668V10.0001L9.3381 10.0874C9.35331 10.2031 9.39859 10.3127 9.46944 10.4054L9.52744 10.4721L11.5275 12.4721L11.5901 12.5267C11.707 12.6175 11.8508 12.6667 11.9988 12.6667C12.1468 12.6667 12.2906 12.6175 12.4075 12.5267L12.4701 12.4714L12.5255 12.4087C12.6162 12.2918 12.6654 12.1481 12.6654 12.0001C12.6654 11.8521 12.6162 11.7083 12.5255 11.5914L12.4701 11.5287L10.6655 9.72338V6.66668L10.6608 6.58868C10.6417 6.42651 10.5637 6.27699 10.4417 6.16848C10.3197 6.05997 10.1621 6.00002 9.99878 6Z" fill="#69B1FF"/>
  </g>
  <defs>
    <clipPath id="clip0_3081_1167">
      <rect width="20" height="20" fill="white"/>
    </clipPath>
  </defs>
</svg>
