<svg xmlns="http://www.w3.org/2000/svg" width="20" height="20" viewBox="0 0 20 20" fill="none">
  <g clip-path="url(#clip0_3081_23173)">
    <path d="M13.3361 4.22665C14.3416 4.80722 15.178 5.64035 15.7626 6.64354C16.3472 7.64674 16.6597 8.78522 16.6691 9.94628C16.6784 11.1073 16.3844 12.2507 15.8161 13.2632C15.2478 14.2757 14.4249 15.1223 13.4289 15.719C12.4329 16.3157 11.2983 16.642 10.1374 16.6655C8.97656 16.689 7.82969 16.4089 6.81035 15.853C5.79101 15.297 4.93454 14.4845 4.32573 13.4958C3.71692 12.5071 3.37688 11.3765 3.33927 10.2161L3.33594 10.0001L3.33927 9.78405C3.37661 8.63269 3.71164 7.51066 4.31171 6.52734C4.91178 5.54401 5.7564 4.73295 6.76324 4.17323C7.77008 3.61351 8.90477 3.32423 10.0567 3.33359C11.2086 3.34295 12.3385 3.65064 13.3361 4.22665ZM10.0027 6C9.8394 6.00002 9.68179 6.05997 9.55977 6.16848C9.43774 6.27699 9.35978 6.42651 9.34068 6.58868L9.33601 6.66668V10.0001L9.34201 10.0874C9.35721 10.2031 9.4025 10.3127 9.47335 10.4054L9.53135 10.4721L11.5314 12.4721L11.594 12.5267C11.711 12.6175 11.8547 12.6667 12.0027 12.6667C12.1507 12.6667 12.2945 12.6175 12.4114 12.5267L12.474 12.4714L12.5294 12.4087C12.6201 12.2918 12.6693 12.1481 12.6693 12.0001C12.6693 11.8521 12.6201 11.7083 12.5294 11.5914L12.474 11.5287L10.6694 9.72338V6.66668L10.6647 6.58868C10.6456 6.42651 10.5676 6.27699 10.4456 6.16848C10.3236 6.05997 10.166 6.00002 10.0027 6Z" fill="url(#paint0_linear_3081_23173)"/>
  </g>
  <defs>
    <linearGradient id="paint0_linear_3081_23173" x1="23.4571" y1="29.0281" x2="2.51429" y2="27.8839" gradientUnits="userSpaceOnUse">
      <stop stop-color="#71CBFF"/>
      <stop offset="1" stop-color="#8C68FF"/>
    </linearGradient>
    <clipPath id="clip0_3081_23173">
      <rect width="20" height="20" fill="white"/>
    </clipPath>
  </defs>
</svg>
