<svg xmlns="http://www.w3.org/2000/svg" width="20" height="20" viewBox="0 0 20 20" fill="none">
  <g clip-path="url(#clip0_3081_23168)">
    <path d="M14.4192 4.54869C15.5666 5.69597 16.2229 7.24453 16.2492 8.86692C16.2755 10.4893 15.6698 12.0583 14.5602 13.2422L14.4192 13.388L11.4728 16.3338C11.0989 16.7074 10.597 17.2643 10.0687 17.2818C9.54047 17.2992 9.02533 16.7757 8.62769 16.4275L8.52769 16.3338L5.58055 13.3873C4.40847 12.2153 3.75 10.6256 3.75 8.96802C3.75 7.31044 4.40847 5.72076 5.58055 4.54869C6.75263 3.37661 8.34231 2.71814 9.99988 2.71814C11.6574 2.71814 13.2471 3.37661 14.4192 4.54869ZM9.99988 6.88474C9.7263 6.88474 9.45539 6.93862 9.20264 7.04332C8.94988 7.14801 8.72022 7.30146 8.52677 7.49491C8.33332 7.68836 8.17987 7.91802 8.07518 8.17078C7.97048 8.42353 7.9166 8.69444 7.9166 8.96802C7.9166 9.2416 7.97048 9.5125 8.07518 9.76525C8.17987 10.018 8.33332 10.2477 8.52677 10.4411C8.72022 10.6346 8.94988 10.788 9.20264 10.8927C9.45539 10.9974 9.7263 11.0513 9.99988 11.0513C10.5524 11.0513 11.0823 10.8318 11.473 10.4411C11.8637 10.0504 12.0832 9.52053 12.0832 8.96802C12.0832 8.4155 11.8637 7.8856 11.473 7.49491C11.0823 7.10422 10.5524 6.88474 9.99988 6.88474Z" fill="#69B1FF"/>
  </g>
  <defs>
    <clipPath id="clip0_3081_23168">
      <rect width="20" height="20" fill="white"/>
    </clipPath>
  </defs>
</svg>
